Coordinates
version=1
nRows=29
nColumns=24
inDegrees=yes

Units are S.I. units (second, meters, Newtons, ...)
Angles are in degrees.

endheader
time	pelvis_tilt	pelvis_list	pelvis_rotation	pelvis_tx	pelvis_ty	pelvis_tz	hip_flexion_r	hip_adduction_r	hip_rotation_r	knee_angle_r	ankle_angle_r	subtalar_angle_r	mtp_angle_r	hip_flexion_l	hip_adduction_l	hip_rotation_l	knee_angle_l	ankle_angle_l	subtalar_angle_l	mtp_angle_l	lumbar_extension	lumbar_bending	lumbar_rotation
      5.94000000	     34.82232142	     11.72010119	      8.86755221	      1.31366738	      0.65326074	     -0.26050506	    -14.61905903	     -8.38616211	    -10.50389128	     -1.16065250	     11.24704872	      3.62167537	      0.00000000	    -49.15780090	      1.17411521	      4.78745620	    -18.38639080	     23.94097975	     16.84559506	      0.00000000	    -65.78660729	     -1.68665849	    -12.52979690
      5.94500000	     34.99576991	     11.41121429	      9.00506447	      1.31974720	      0.65326771	     -0.25989081	    -14.50950087	     -7.94854623	    -10.14961160	     -2.41774814	     10.79980087	      3.30613162	      0.00000000	    -49.44800684	      0.60076117	      4.88150821	    -19.15111802	     23.44564560	     16.90768071	      0.00000000	    -65.87894778	     -1.35273994	    -12.22285260
      5.95000000	     35.17409548	     11.07297455	      9.13677064	      1.32589173	      0.65334480	     -0.25923822	    -14.38609563	     -7.46577609	     -9.84669062	     -3.77477538	     10.32507376	      2.97708999	      0.00000000	    -49.71170463	      0.01436168	      4.92474378	    -19.96945872	     22.84626665	     16.93642697	      0.00000000	    -65.96676088	     -1.01596465	    -11.92289320
      5.95500000	     35.35999393	     10.70271013	      9.23816624	      1.33207661	      0.65347048	     -0.25857489	    -14.24590811	     -6.95017866	     -9.61281823	     -5.21331892	      9.83881762	      2.68896944	      0.00000000	    -49.94592716	     -0.55908602	      4.92452538	    -20.85509728	     22.15308600	     16.94073387	      0.00000000	    -66.04554820	     -0.67003437	    -11.61319939
      5.96000000	     35.54298283	     10.37572360	      9.35877585	      1.33822359	      0.65366903	     -0.25790951	    -14.10626430	     -6.47807839	     -9.53117614	     -6.71713141	      9.33801486	      2.59152127	      0.00000000	    -50.12234578	     -1.10317941	      4.93193359	    -21.82576519	     21.37152329	     16.93508012	      0.00000000	    -66.14580849	     -0.33683315	    -11.38477438
      5.96500000	     35.72006741	     10.01374164	      9.47611059	      1.34450723	      0.65390603	     -0.25721741	    -13.98628586	     -5.95594986	     -9.47056141	     -8.20644337	      8.88624310	      2.46708635	      0.00000000	    -50.25116666	     -1.66121325	      4.88811094	    -22.87942928	     20.44413092	     16.87165056	      0.00000000	    -66.20724870	     -0.00429285	    -11.13497205
      5.97000000	     35.90835900	      9.55907804	      9.45520774	      1.35093480	      0.65410478	     -0.25650088	    -13.81972553	     -5.36699238	     -9.19783512	     -9.76538562	      8.51720604	      2.16884125	      0.00000000	    -50.40569653	     -2.16498671	      4.65453882	    -23.91705625	     19.43075752	     16.76558894	      0.00000000	    -66.22287825	      0.30201281	    -10.74077806
      5.97500000	     36.07894342	      9.23595666	      9.54747542	      1.35729255	      0.65440657	     -0.25580260	    -13.73395471	     -4.89559354	     -9.30509934	    -11.24684874	      8.18462996	      2.18748020	      0.00000000	    -50.44252334	     -2.65609477	      4.51261370	    -25.10454711	     18.27421346	     16.65409841	      0.00000000	    -66.26589922	      0.59655648	    -10.55100664
      5.98000000	     36.25241878	      8.93122424	      9.65367215	      1.36371978	      0.65474108	     -0.25509938	    -13.70617199	     -4.42936978	     -9.38366820	    -12.66599049	      7.94203419	      2.21978607	      0.00000000	    -50.43038219	     -3.14238172	      4.33958608	    -26.36906244	     16.99936147	     16.52069366	      0.00000000	    -66.29689873	      0.88098634	    -10.40571370
      5.98500000	     36.39897031	      8.59420680	      9.67748991	      1.37017796	      0.65504035	     -0.25443458	    -13.65199360	     -3.96418431	     -9.41266230	    -14.04663190	      7.78709665	      2.21043933	      0.00000000	    -50.34279015	     -3.54571736	      4.09615996	    -27.71475408	     15.60853189	     16.14960140	      0.00000000	    -66.28256305	      1.14411121	    -10.18051340
      5.99000000	     36.55718228	      8.33469867	      9.76756554	      1.37669567	      0.65541783	     -0.25367270	    -13.71223912	     -3.53543612	     -9.50809958	    -15.30708241	      7.71944353	      2.26190178	      0.00000000	    -50.21182383	     -3.98905263	      3.81002623	    -29.10922144	     14.06578151	     15.98415138	      0.00000000	    -66.27784930	      1.37271152	    -10.08996716
      5.99500000	     36.68371181	      8.07117067	      9.77980179	      1.38315199	      0.65576132	     -0.25300372	    -13.75622465	     -3.14565072	     -9.57074636	    -16.50254528	      7.77191887	      2.30150462	      0.00000000	    -49.97394791	     -4.31716550	      3.49227161	    -30.61360025	     12.40655604	     15.45538023	      0.00000000	    -66.24708098	      1.58451474	     -9.96361006
      6.00000000	     36.78461346	      7.85736514	      9.81266315	      1.38961861	      0.65612176	     -0.25226819	    -13.84146232	     -2.78783984	     -9.59990069	    -17.59868035	      7.94099016	      2.36115432	      0.00000000	    -49.64241564	     -4.63650682	      3.15196739	    -32.18570278	     10.63342265	     14.93222775	      0.00000000	    -66.19211695	      1.75027060	     -9.89519648
      6.00500000	     36.87921112	      7.66521408	      9.87415213	      1.39609538	      0.65651117	     -0.25149266	    -13.99380463	     -2.42714206	     -9.65167784	    -18.57583689	      8.20300457	      2.39818021	      0.00000000	    -49.24219224	     -4.97720692	      2.77137782	    -33.80489528	      8.74990488	     14.34383534	      0.00000000	    -66.12864340	      1.91400288	     -9.85267955
      6.01000000	     36.95756819	      7.49768939	      9.93725819	      1.40254464	      0.65691458	     -0.25071209	    -14.20135095	     -2.08134929	     -9.69088254	    -19.42206922	      8.57725668	      2.43041377	      0.00000000	    -48.75414368	     -5.29747007	      2.37592837	    -35.49047523	      6.77776374	     13.62341938	      0.00000000	    -66.05198461	      2.05592969	     -9.82630585
      6.01500000	     37.04434564	      7.32354805	     10.01940767	      1.40900100	      0.65734844	     -0.24993676	    -14.48708577	     -1.70821297	     -9.76293140	    -20.14163194	      9.00540871	      2.41899442	      0.00000000	    -48.22911095	     -5.65264261	      1.91377059	    -37.18986647	      4.75039810	     12.78084777	      0.00000000	    -65.97076493	      2.21823484	     -9.79703215
      6.02000000	     37.12765997	      7.15811386	     10.11022913	      1.41541368	      0.65779689	     -0.24914592	    -14.82781773	     -1.32653702	     -9.81453591	    -20.75061369	      9.52090475	      2.40560070	      0.00000000	    -47.64076342	     -6.01074608	      1.44835644	    -38.92359748	      2.69184069	     11.79985516	      0.00000000	    -65.89042256	      2.37140841	     -9.75996223
      6.02500000	     37.20167628	      6.99535904	     10.21761880	      1.42180524	      0.65826225	     -0.24830982	    -15.21663671	     -0.92402785	     -9.85876113	    -21.25078632	     10.09627415	      2.38787982	      0.00000000	    -46.99255451	     -6.38952146	      0.96922477	    -40.67125483	      0.62834714	     10.66577458	      0.00000000	    -65.80038500	      2.51329972	     -9.70396134
      6.03000000	     37.26811926	      6.83585384	     10.32008183	      1.42809781	      0.65874058	     -0.24756251	    -15.64187277	     -0.52969074	     -9.88257181	    -21.65516203	     10.72412895	      2.38323727	      0.00000000	    -46.28333475	     -6.74224462	      0.50464836	    -42.44102313	     -1.37757478	      9.37714567	      0.00000000	    -65.71498864	      2.68510257	     -9.63119848
      6.03500000	     37.27689253	      6.73482278	     10.42288344	      1.43431029	      0.65921434	     -0.24673354	    -16.04112910	     -0.19686330	     -9.91794347	    -22.00819937	     11.46507121	      2.45663130	      0.00000000	    -45.45930569	     -7.04053326	      0.09757691	    -44.22323711	     -3.32906970	      7.93730625	      0.00000000	    -65.59409383	      2.76638930	     -9.59198837
      6.04000000	     37.35437509	      6.49482925	     10.56635987	      1.44060371	      0.65974311	     -0.24595716	    -16.57560065	      0.32764669	     -9.96448221	    -22.19387654	     12.04542486	      2.40035055	      0.00000000	    -44.70896774	     -7.51160137	     -0.42681260	    -45.94762885	     -5.08381490	      6.44751800	      0.00000000	    -65.49272686	      2.97766578	     -9.40586155
      6.04500000	     37.43197378	      6.31692458	     10.68273076	      1.44675099	      0.66029580	     -0.24522425	    -17.13769661	      0.77286822	     -9.99157231	    -22.33527952	     12.69801550	      2.43278780	      0.00000000	    -43.92396048	     -7.88838566	     -0.88393038	    -47.66153576	     -6.70513700	      4.80625375	      0.00000000	    -65.42785031	      3.14548081	     -9.23212646
      6.05000000	     37.50091884	      6.12258044	     10.79152848	      1.45286862	      0.66087492	     -0.24452995	    -17.72929041	      1.22885746	    -10.03913471	    -22.39033617	     13.33942941	      2.48533177	      0.00000000	    -43.11662967	     -8.26062853	     -1.33459234	    -49.33607199	     -8.11872791	      3.12298862	      0.00000000	    -65.34920295	      3.31627856	     -9.02003462
      6.05500000	     37.53984167	      5.99213802	     10.88882087	      1.45888951	      0.66147573	     -0.24383913	    -18.31806180	      1.60657254	    -10.08353747	    -22.40697525	     14.03288407	      2.64350761	      0.00000000	    -42.25153505	     -8.54131037	     -1.68923648	    -50.98485166	     -9.33435223	      1.37427444	      0.00000000	    -65.26168933	      3.41776389	     -8.85246970
      6.06000000	     37.60234589	      5.79935396	     10.98458750	      1.46489833	      0.66211163	     -0.24319925	    -18.96127301	      2.05350850	    -10.13323596	    -22.33228878	     14.60881576	      2.75936169	      0.00000000	    -41.41367575	     -8.87140719	     -2.08231985	    -52.57972117	    -10.24693108	     -0.32191086	      0.00000000	    -65.18634650	      3.56647693	     -8.58953942
      6.06500000	     37.69250603	      5.56190773	     11.07067832	      1.47097306	      0.66276670	     -0.24259855	    -19.68029719	      2.55788999	    -10.14523160	    -22.15499533	     15.15731038	      2.82524269	      0.00000000	    -40.63350920	     -9.23198569	     -2.50135692	    -54.09831345	    -10.77138579	     -1.90761339	      0.00000000	    -65.10691344	      3.73805313	     -8.22576018
      6.07000000	     37.77598351	      5.40823621	     11.08365243	      1.47680060	      0.66348675	     -0.24199058	    -20.38159534	      2.91809309	    -10.21145085	    -21.99697861	     15.64452724	      3.04230880	      0.00000000	    -39.81374582	     -9.43785701	     -2.87342380	    -55.57810728	    -11.22343550	     -3.52765223	      0.00000000	    -65.09147240	      3.80173100	     -7.94485550
      6.07500000	     37.84822224	      5.26588577	     11.08767587	      1.48263874	      0.66421735	     -0.24141922	    -21.11091334	      3.26564965	    -10.23027340	    -21.76764859	     16.14182809	      3.27386621	      0.00000000	    -38.99376665	     -9.60008676	     -3.19625135	    -56.99360887	    -11.32714255	     -5.00811443	      0.00000000	    -65.05372659	      3.85493715	     -7.64419415
      6.08000000	     37.92553344	      5.13208536	     11.05943710	      1.48847930	      0.66498066	     -0.24089222	    -21.88016825	      3.58865789	    -10.21894939	    -21.47444050	     16.57799318	      3.48408831	      0.00000000	    -38.20427180	     -9.71066241	     -3.51247581	    -58.32242515	    -11.08926591	     -6.32920745	      0.00000000	    -65.01035442	      3.87446013	     -7.31826035
